# xmcd
#
# Track frame offsets: 
#        150
#        20215
#        37794
#        44446
#        59262
#        80559
#        95103
#        112783
#        129784
#        143832
#        165888
#
# Disc length: 2491 seconds
#
# Revision: 0
# Processed by: cddbd v1.5.2PL0 Copyright (c) Steve Scherf et al.
# Submitted via: ExactAudioCopyFreeDBPlugin 1.0
#
DISCID=8409b90b
DTITLE=Ad Vanderveen - I was Hank Williams
DYEAR=2018
DGENRE=Alt. Country 
TTITLE0=Sublime Difference
TTITLE1=Something Ongoing
TTITLE2=Live And Give It All
TTITLE3=I Was Hank Williams
TTITLE4=Catch A Falling Leaf
TTITLE5=Heavy Heart
TTITLE6=Where Does Love Belong
TTITLE7=Home On High
TTITLE8=Song From The Wise Man's Cave
TTITLE9=Song Of The Wind
TTITLE10=Home On High (accoustic Bonus)
EXTD=
EXTT0=
EXTT1=
EXTT2=
EXTT3=
EXTT4=
EXTT5=
EXTT6=
EXTT7=
EXTT8=
EXTT9=
EXTT10=
PLAYORDER=
